<svg width="179" height="38" viewBox="0 0 179 38" fill="none" xmlns="http://www.w3.org/2000/svg">
<path d="M17.2412 8.50635L15.3412 36.2563C15.3079 36.7563 15.1245 37.0063 14.7912 37.0063H12.0412C10.1745 37.0063 8.84121 36.6397 8.04121 35.9063C7.24121 35.173 6.84121 34.123 6.84121 32.7563C6.84121 32.2563 6.85788 31.5063 6.89121 30.5063C6.95788 29.5063 7.04121 28.3397 7.14121 27.0063C7.24121 25.6397 7.34121 24.173 7.44121 22.6063C7.57454 21.0063 7.70788 19.4063 7.84121 17.8063C7.97454 16.173 8.09121 14.5563 8.19121 12.9563C8.32454 11.3563 8.44121 9.87301 8.54121 8.50635H0.541211C0.174544 8.50635 -0.008789 8.27301 -0.008789 7.80635L0.141211 5.00635C0.174544 4.57301 0.241211 4.15635 0.341211 3.75635C0.474544 3.32301 0.674544 2.93968 0.941211 2.60635C1.20788 2.27301 1.54121 2.00635 1.94121 1.80634C2.37454 1.60635 2.89121 1.50635 3.49121 1.50635H25.8412C26.0412 1.50635 26.2245 1.55635 26.3912 1.65635C26.5579 1.75635 26.6412 1.93968 26.6412 2.20635L26.4412 5.15635C26.3745 6.15635 26.0912 6.97301 25.5912 7.60635C25.1245 8.20635 24.1412 8.50635 22.6412 8.50635H17.2412ZM42.4354 21.4563C42.2354 21.4563 42.002 21.4563 41.7354 21.4563C41.502 21.423 41.2687 21.3897 41.0354 21.3563C40.802 21.2897 40.602 21.223 40.4354 21.1563C40.2687 21.0563 40.1854 20.9397 40.1854 20.8063C40.1854 20.373 40.202 19.973 40.2354 19.6063C40.2687 19.2397 40.2854 18.8563 40.2854 18.4563C40.2854 17.723 40.1854 17.123 39.9854 16.6563C39.7854 16.1897 39.3854 15.9563 38.7854 15.9563C37.852 15.9563 37.0687 16.573 36.4354 17.8063C35.8354 19.0063 35.452 20.823 35.2854 23.2563C35.2187 24.323 35.1187 25.5397 34.9854 26.9063C34.8854 28.2397 34.7854 29.5397 34.6854 30.8063C34.5854 32.0397 34.502 33.1397 34.4354 34.1063C34.3687 35.073 34.3354 35.7063 34.3354 36.0063C34.3354 36.3397 34.2187 36.5897 33.9854 36.7563C33.752 36.923 33.502 37.0063 33.2354 37.0063H31.4354C30.402 37.0063 29.552 36.9063 28.8854 36.7063C28.252 36.473 27.7354 36.1563 27.3354 35.7563C26.9687 35.3563 26.702 34.873 26.5354 34.3063C26.402 33.7063 26.3354 33.023 26.3354 32.2563C26.3354 31.7563 26.352 31.0563 26.3854 30.1563C26.452 29.223 26.552 27.9563 26.6854 26.3563C26.8187 24.723 26.9687 22.673 27.1354 20.2063C27.3354 17.7063 27.5687 14.623 27.8354 10.9563C27.902 9.98968 28.252 9.50635 28.8854 9.50635H30.8354C31.7687 9.50635 32.552 9.60635 33.1854 9.80635C33.8187 10.0063 34.3354 10.2897 34.7354 10.6563C35.1354 10.9897 35.4187 11.3897 35.5854 11.8563C35.7854 12.323 35.9187 12.8063 35.9854 13.3063C36.3854 12.5397 36.852 11.8897 37.3854 11.3563C37.952 10.7897 38.5354 10.3397 39.1354 10.0063C39.7354 9.63968 40.352 9.38968 40.9854 9.25635C41.6187 9.08968 42.202 9.00635 42.7354 9.00635C43.3687 9.00635 44.002 9.12301 44.6354 9.35635C45.302 9.58968 45.902 9.93968 46.4354 10.4063C46.9687 10.873 47.3854 11.473 47.6854 12.2063C48.0187 12.9397 48.1854 13.8063 48.1854 14.8063C48.1854 15.7063 48.052 16.5563 47.7854 17.3563C47.5187 18.1563 47.1354 18.873 46.6354 19.5063C46.1354 20.1063 45.5187 20.5897 44.7854 20.9563C44.0854 21.2897 43.302 21.4563 42.4354 21.4563ZM49.0158 30.8563C49.0158 27.8563 50.3658 25.5063 53.0658 23.8063C55.7658 22.1063 59.7492 21.1897 65.0158 21.0563C65.0492 20.6897 65.0658 20.3897 65.0658 20.1563C65.0992 19.8897 65.1158 19.573 65.1158 19.2063C65.1158 18.1397 64.9158 17.2897 64.5158 16.6563C64.1158 16.023 63.2825 15.7063 62.0158 15.7063C61.3158 15.7063 60.7492 15.8063 60.3158 16.0063C59.8825 16.2063 59.5325 16.4897 59.2658 16.8563C58.9992 17.1897 58.7825 17.6063 58.6158 18.1063C58.4492 18.6063 58.2992 19.1563 58.1658 19.7563C58.0992 20.0563 57.9492 20.2563 57.7158 20.3563C57.4825 20.423 57.1158 20.4563 56.6158 20.4563C53.2158 20.4563 51.5158 19.173 51.5158 16.6063C51.5158 15.573 51.7492 14.5897 52.2158 13.6563C52.7158 12.723 53.4325 11.923 54.3658 11.2563C55.3325 10.5563 56.5325 10.0063 57.9658 9.60635C59.3992 9.20635 61.0658 9.00635 62.9658 9.00635C66.6658 9.00635 69.3492 9.77301 71.0158 11.3063C72.6825 12.8397 73.5158 15.0063 73.5158 17.8063C73.5158 18.173 73.4658 18.8397 73.3658 19.8063C73.2992 20.7397 73.1992 21.7397 73.0658 22.8063C72.9658 23.8397 72.8658 24.823 72.7658 25.7563C72.6992 26.6897 72.6658 27.3397 72.6658 27.7063C72.6658 28.5397 72.8158 29.1397 73.1158 29.5063C73.4158 29.8397 73.7492 30.073 74.1158 30.2063C74.5158 30.3397 74.8658 30.4397 75.1658 30.5063C75.4658 30.573 75.6158 30.7397 75.6158 31.0063C75.6158 31.7397 75.5158 32.4897 75.3158 33.2563C75.1158 34.023 74.7825 34.723 74.3158 35.3563C73.8825 35.9897 73.2658 36.5063 72.4658 36.9063C71.6992 37.3063 70.7492 37.5063 69.6158 37.5063C68.0158 37.5063 66.8158 37.123 66.0158 36.3563C65.2158 35.5897 64.6825 34.523 64.4158 33.1563C63.6158 34.323 62.5658 35.3397 61.2658 36.2063C59.9992 37.073 58.3325 37.5063 56.2658 37.5063C55.2658 37.5063 54.3158 37.3897 53.4158 37.1563C52.5492 36.923 51.7825 36.5397 51.1158 36.0063C50.4825 35.473 49.9658 34.7897 49.5658 33.9563C49.1992 33.0897 49.0158 32.0563 49.0158 30.8563ZM64.5658 25.1563C63.6992 25.1563 62.8492 25.223 62.0158 25.3563C61.1825 25.4897 60.4325 25.7063 59.7658 26.0063C59.1325 26.273 58.6158 26.6397 58.2158 27.1063C57.8158 27.573 57.6158 28.1397 57.6158 28.8063C57.6158 29.573 57.8492 30.1063 58.3158 30.4063C58.8158 30.7063 59.3492 30.8563 59.9158 30.8563C60.4492 30.8563 60.9825 30.7397 61.5158 30.5063C62.0492 30.273 62.5158 29.923 62.9158 29.4563C63.3492 28.9563 63.7158 28.3563 64.0158 27.6563C64.3158 26.9563 64.4992 26.123 64.5658 25.1563ZM90.249 30.6563C90.649 29.2563 91.0157 27.873 91.349 26.5063C91.7157 25.1397 92.0657 23.6897 92.399 22.1563C92.7657 20.5897 93.149 18.8897 93.549 17.0563C93.9824 15.1897 94.4824 13.073 95.049 10.7063C95.149 10.2397 95.299 9.93968 95.499 9.80635C95.699 9.63968 96.1324 9.55635 96.799 9.55635C97.299 9.55635 97.9657 9.57301 98.799 9.60635C99.6324 9.63968 100.449 9.75635 101.249 9.95635C102.049 10.1563 102.732 10.4563 103.299 10.8563C103.899 11.2563 104.199 11.8063 104.199 12.5063C104.199 13.073 103.999 13.9897 103.599 15.2563C103.199 16.523 102.682 17.973 102.049 19.6063C101.416 21.2063 100.699 22.8897 99.899 24.6563C99.1324 26.423 98.3824 28.0897 97.649 29.6563C96.9157 31.223 96.2324 32.6063 95.599 33.8063C94.9657 34.973 94.499 35.7897 94.199 36.2563C93.9324 36.623 93.699 36.8397 93.499 36.9063C93.299 36.973 92.9657 37.0063 92.499 37.0063H88.049C87.349 37.0063 86.7657 36.8897 86.299 36.6563C85.8657 36.3897 85.499 36.0563 85.199 35.6563C84.899 35.2563 84.649 34.8063 84.449 34.3063C84.249 33.773 84.0657 33.223 83.899 32.6563C82.9324 29.323 82.0824 26.473 81.349 24.1063C80.649 21.7063 80.049 19.7063 79.549 18.1063C79.049 16.5063 78.649 15.2397 78.349 14.3063C78.049 13.3397 77.8157 12.6063 77.649 12.1063C77.4824 11.573 77.3657 11.223 77.299 11.0563C77.2324 10.8563 77.199 10.723 77.199 10.6563C77.2324 10.423 77.399 10.173 77.699 9.90634C77.999 9.63968 78.3824 9.50635 78.849 9.50635C80.3824 9.50635 81.6824 9.57301 82.749 9.70635C83.849 9.80635 84.749 10.0063 85.449 10.3063C86.1824 10.6063 86.7324 11.023 87.099 11.5563C87.499 12.0897 87.7824 12.7897 87.949 13.6563C87.9824 13.8897 88.049 14.3563 88.149 15.0563C88.249 15.7563 88.349 16.6063 88.449 17.6063C88.5824 18.573 88.7324 19.6563 88.899 20.8563C89.0657 22.023 89.2157 23.2063 89.349 24.4063C89.5157 25.573 89.6657 26.7063 89.799 27.8063C89.9657 28.9063 90.1157 29.8563 90.249 30.6563ZM118.087 37.5063C115.787 37.5063 113.87 37.1897 112.337 36.5563C110.837 35.8897 109.637 34.9897 108.737 33.8563C107.837 32.723 107.204 31.4063 106.837 29.9063C106.47 28.373 106.287 26.7397 106.287 25.0063C106.287 23.0063 106.52 21.0563 106.987 19.1563C107.487 17.223 108.32 15.5063 109.487 14.0063C110.654 12.5063 112.187 11.3063 114.087 10.4063C116.02 9.47301 118.42 9.00635 121.287 9.00635C125.487 9.00635 128.487 10.0397 130.287 12.1063C132.12 14.1397 133.037 17.0063 133.037 20.7063C133.037 21.7397 132.954 22.8897 132.787 24.1563C132.654 25.3897 132.37 26.623 131.937 27.8563C131.537 29.0897 130.97 30.2897 130.237 31.4563C129.537 32.623 128.637 33.6563 127.537 34.5563C126.437 35.4563 125.104 36.173 123.537 36.7063C122.004 37.2397 120.187 37.5063 118.087 37.5063ZM120.437 15.6563C119.17 15.6563 118.154 15.9897 117.387 16.6563C116.654 17.2897 116.087 18.073 115.687 19.0063C115.32 19.9063 115.07 20.873 114.937 21.9063C114.837 22.9063 114.787 23.7563 114.787 24.4563C114.787 26.6563 115.137 28.273 115.837 29.3063C116.537 30.3397 117.537 30.8563 118.837 30.8563C120.004 30.8563 120.954 30.4897 121.687 29.7563C122.454 29.023 123.037 28.1397 123.437 27.1063C123.87 26.073 124.154 24.9897 124.287 23.8563C124.454 22.723 124.537 21.773 124.537 21.0063C124.537 19.3397 124.22 18.0397 123.587 17.1063C122.987 16.1397 121.937 15.6563 120.437 15.6563ZM143.07 37.4563C141.003 37.4563 139.52 36.9063 138.62 35.8063C137.72 34.7063 137.27 32.8897 137.27 30.3563C137.27 29.9563 137.286 29.4563 137.32 28.8563C137.386 28.2563 137.453 27.4897 137.52 26.5563C137.62 25.5897 137.736 24.4063 137.87 23.0063C138.003 21.6063 138.136 19.9063 138.27 17.9063C138.436 15.9063 138.603 13.5563 138.77 10.8563C138.97 8.15635 139.17 5.02301 139.37 1.45635C139.403 0.723013 139.486 0.289679 139.62 0.156345C139.72 0.0563465 139.986 0.00634718 140.42 0.00634718H142.37C143.37 0.00634718 144.203 0.123013 144.87 0.356346C145.536 0.58968 146.07 0.906347 146.47 1.30635C146.87 1.70635 147.153 2.17301 147.32 2.70635C147.486 3.20635 147.57 3.73968 147.57 4.30635C147.57 4.97301 147.52 5.93968 147.42 7.20635C147.353 8.43968 147.253 9.83968 147.12 11.4063C146.986 12.973 146.853 14.6063 146.72 16.3063C146.586 18.0063 146.453 19.6397 146.32 21.2063C146.186 22.7397 146.07 24.123 145.97 25.3563C145.903 26.5897 145.87 27.523 145.87 28.1563C145.87 29.023 146.02 29.6397 146.32 30.0063C146.653 30.373 147.003 30.6397 147.37 30.8063C147.736 30.9397 148.07 31.0397 148.37 31.1063C148.703 31.1397 148.87 31.2397 148.87 31.4063C148.87 32.1397 148.786 32.873 148.62 33.6063C148.453 34.3063 148.153 34.9563 147.72 35.5563C147.286 36.123 146.686 36.5897 145.92 36.9563C145.186 37.2897 144.236 37.4563 143.07 37.4563ZM164.058 37.5063C161.758 37.5063 159.841 37.1897 158.308 36.5563C156.808 35.8897 155.608 34.9897 154.708 33.8563C153.808 32.723 153.174 31.4063 152.808 29.9063C152.441 28.373 152.258 26.7397 152.258 25.0063C152.258 23.0063 152.491 21.0563 152.958 19.1563C153.458 17.223 154.291 15.5063 155.458 14.0063C156.624 12.5063 158.158 11.3063 160.058 10.4063C161.991 9.47301 164.391 9.00635 167.258 9.00635C171.458 9.00635 174.458 10.0397 176.258 12.1063C178.091 14.1397 179.008 17.0063 179.008 20.7063C179.008 21.7397 178.924 22.8897 178.758 24.1563C178.624 25.3897 178.341 26.623 177.908 27.8563C177.508 29.0897 176.941 30.2897 176.208 31.4563C175.508 32.623 174.608 33.6563 173.508 34.5563C172.408 35.4563 171.074 36.173 169.508 36.7063C167.974 37.2397 166.158 37.5063 164.058 37.5063ZM166.408 15.6563C165.141 15.6563 164.124 15.9897 163.358 16.6563C162.624 17.2897 162.058 18.073 161.658 19.0063C161.291 19.9063 161.041 20.873 160.908 21.9063C160.808 22.9063 160.758 23.7563 160.758 24.4563C160.758 26.6563 161.108 28.273 161.808 29.3063C162.508 30.3397 163.508 30.8563 164.808 30.8563C165.974 30.8563 166.924 30.4897 167.658 29.7563C168.424 29.023 169.008 28.1397 169.408 27.1063C169.841 26.073 170.124 24.9897 170.258 23.8563C170.424 22.723 170.508 21.773 170.508 21.0063C170.508 19.3397 170.191 18.0397 169.558 17.1063C168.958 16.1397 167.908 15.6563 166.408 15.6563Z" fill="#FFB42A"/>
</svg>
