<?xml version="1.0" encoding="UTF-8" ?>
<!DOCTYPE svg PUBLIC "-//W3C//DTD SVG 1.1//EN" "http://www.w3.org/Graphics/SVG/1.1/DTD/svg11.dtd">
<svg width="375.75pt" height="150pt" viewBox="0 0 5000 1996" version="1.1" xmlns="http://www.w3.org/2000/svg">
<g id="#000000ff">
<path fill="#000000" opacity="1.00" d=" M 1295.95 0.00 L 1559.10 0.00 C 1560.54 22.54 1563.21 44.98 1564.60 67.52 C 1559.40 66.63 1554.43 63.98 1551.46 59.54 C 1545.59 51.02 1544.40 40.39 1539.88 31.23 C 1537.03 25.12 1531.74 19.73 1524.89 18.54 C 1500.62 13.74 1475.81 16.99 1451.29 16.22 C 1451.27 87.14 1451.18 158.07 1451.13 229.00 C 1451.52 240.18 1450.70 251.93 1455.43 262.39 C 1456.97 266.46 1461.29 268.29 1464.93 270.09 C 1477.79 275.49 1492.06 273.51 1505.57 275.45 C 1505.54 280.09 1505.67 284.73 1505.48 289.37 C 1453.16 289.29 1400.84 289.34 1348.52 289.35 C 1348.38 284.67 1348.40 280.00 1348.36 275.34 C 1362.58 274.03 1377.29 274.93 1390.97 270.14 C 1393.18 269.17 1396.14 268.75 1397.15 266.22 C 1403.15 254.81 1402.47 241.52 1402.86 229.02 C 1402.81 158.07 1402.73 87.13 1402.70 16.19 C 1378.49 16.68 1354.07 14.28 1330.08 18.49 C 1324.76 19.35 1320.11 22.79 1317.27 27.29 C 1310.91 37.32 1310.58 50.02 1303.80 59.84 C 1300.88 64.15 1296.02 66.71 1290.97 67.56 C 1292.03 45.00 1294.12 22.51 1295.95 0.00 Z" />
<path fill="#000000" opacity="1.00" d=" M 1601.12 0.00 L 1751.23 0.00 C 1750.99 3.92 1750.75 7.84 1750.54 11.77 C 1739.00 13.99 1726.80 13.95 1715.96 18.97 C 1709.09 22.05 1703.59 28.38 1702.40 35.91 C 1696.39 68.16 1700.71 101.03 1699.52 133.57 C 1749.92 133.66 1800.31 133.61 1850.70 133.60 C 1850.05 103.08 1852.59 72.45 1849.26 42.03 C 1848.69 36.60 1848.10 30.82 1844.71 26.30 C 1840.22 20.16 1832.68 17.37 1825.52 15.78 C 1816.94 13.92 1808.12 13.49 1799.54 11.66 C 1799.48 7.77 1799.34 3.89 1799.23 0.00 L 1948.06 0.00 C 1948.50 3.83 1948.94 7.66 1949.42 11.49 C 1935.96 14.82 1921.07 14.28 1909.06 22.05 C 1902.29 27.47 1900.10 36.61 1899.56 44.88 C 1898.91 58.24 1899.11 71.63 1899.31 85.00 C 1899.69 137.68 1897.90 190.39 1900.17 243.04 C 1900.33 247.95 1900.30 253.05 1902.39 257.60 C 1904.98 263.71 1910.76 267.81 1916.81 270.08 C 1927.10 273.91 1938.21 274.29 1948.98 275.86 C 1949.18 280.30 1949.36 284.74 1949.52 289.19 C 1899.72 289.50 1849.91 289.14 1800.11 289.53 C 1799.72 284.95 1799.31 280.38 1798.95 275.81 C 1808.53 274.36 1818.30 274.00 1827.70 271.48 C 1834.45 269.65 1841.20 266.16 1845.02 260.06 C 1848.65 254.43 1848.73 247.53 1849.54 241.10 C 1852.47 211.23 1849.98 181.21 1850.70 151.27 C 1800.29 151.23 1749.87 151.29 1699.46 151.36 C 1700.68 185.25 1696.51 219.45 1702.32 253.08 C 1703.52 260.66 1709.25 266.95 1716.28 269.75 C 1727.23 274.25 1739.32 273.77 1750.85 275.54 C 1750.90 280.13 1750.87 284.73 1750.88 289.32 C 1700.96 289.34 1651.04 289.34 1601.12 289.32 C 1601.06 284.85 1601.02 280.38 1601.01 275.91 C 1613.13 273.62 1626.01 273.85 1637.30 268.28 C 1643.36 265.68 1646.52 259.30 1648.52 253.38 C 1652.05 241.60 1650.62 229.14 1651.15 217.03 C 1650.13 160.03 1652.45 102.99 1650.05 46.02 C 1649.92 41.54 1649.86 36.93 1648.11 32.74 C 1645.53 26.16 1639.70 21.41 1633.36 18.67 C 1623.16 14.20 1611.93 13.21 1601.02 11.76 C 1601.02 7.84 1601.06 3.92 1601.12 0.00 Z" />
<path fill="#000000" opacity="1.00" d=" M 1979.45 0.00 L 2210.46 0.00 C 2211.92 22.58 2212.55 45.22 2212.14 67.85 C 2207.99 66.47 2204.11 64.07 2201.63 60.41 C 2196.03 52.50 2194.91 42.58 2191.16 33.83 C 2188.46 27.23 2183.32 20.81 2175.95 19.49 C 2143.83 12.81 2110.91 17.48 2078.43 16.23 C 2078.45 55.36 2078.43 94.49 2078.44 133.62 C 2108.64 132.51 2139.01 136.05 2169.08 131.91 C 2171.96 131.95 2173.76 129.46 2175.37 127.41 C 2180.88 119.73 2181.43 109.62 2187.07 102.01 C 2189.74 98.32 2194.02 96.19 2198.46 95.49 C 2199.17 126.30 2198.88 157.12 2198.88 187.93 C 2194.40 187.91 2189.94 188.01 2185.49 187.88 C 2183.38 178.33 2183.60 168.02 2178.80 159.26 C 2176.78 156.12 2174.24 152.38 2170.15 152.15 C 2139.82 146.94 2109.00 151.02 2078.45 149.86 C 2079.38 189.75 2076.01 229.84 2080.99 269.57 C 2109.22 272.63 2137.66 271.99 2166.00 271.49 C 2172.48 271.57 2179.06 270.67 2185.04 268.02 C 2192.61 264.86 2198.92 258.89 2202.31 251.40 C 2207.64 242.68 2209.23 232.27 2214.58 223.58 C 2217.67 218.39 2223.25 215.08 2229.25 214.53 C 2227.44 239.51 2224.72 264.41 2222.08 289.32 C 2142.39 289.35 2062.71 289.34 1983.02 289.32 C 1983.02 284.67 1983.03 280.01 1983.10 275.36 C 1991.88 274.38 2000.82 275.07 2009.52 273.27 C 2015.71 272.04 2022.04 269.08 2025.28 263.37 C 2030.23 254.82 2029.38 244.53 2029.99 235.02 C 2030.04 178.35 2029.78 121.68 2030.13 65.01 C 2029.77 51.36 2030.74 36.95 2024.67 24.29 C 2023.36 21.08 2020.30 19.12 2017.32 17.67 C 2007.73 13.19 1996.34 15.11 1987.03 9.92 C 1983.14 7.89 1980.92 3.96 1979.45 0.00 Z" />
<path fill="#000000" opacity="1.00" d=" M 2637.29 450.43 C 2686.91 449.13 2737.00 456.24 2783.68 473.42 C 2818.82 486.55 2852.10 505.04 2881.17 528.83 C 2927.34 566.59 2963.22 618.00 2978.45 675.99 C 2989.48 719.38 2990.34 765.14 2982.70 809.18 C 2974.90 853.52 2958.01 896.39 2932.52 933.56 C 2909.90 966.40 2880.69 994.61 2847.39 1016.51 C 2793.64 1051.81 2730.06 1071.05 2666.02 1074.51 C 2643.04 1075.42 2619.96 1075.87 2597.04 1073.58 C 2534.45 1067.61 2473.10 1045.76 2421.96 1008.96 C 2399.80 992.90 2379.26 974.42 2362.16 953.00 C 2327.58 910.52 2305.08 857.76 2300.97 802.97 C 2295.69 737.92 2309.00 671.00 2341.18 614.03 C 2366.28 569.65 2402.98 532.08 2446.27 505.23 C 2490.91 477.36 2541.89 460.09 2594.05 453.64 C 2608.41 452.03 2622.83 450.72 2637.29 450.43 M 2609.58 482.84 C 2591.44 484.06 2573.33 486.80 2555.93 492.15 C 2512.19 505.51 2473.31 533.81 2446.73 570.97 C 2428.36 596.25 2414.59 624.76 2405.40 654.59 C 2387.85 711.23 2387.15 772.36 2399.95 830.05 C 2410.68 877.23 2431.93 922.51 2464.28 958.76 C 2487.74 985.17 2516.95 1006.44 2549.37 1020.50 C 2589.03 1037.89 2632.86 1045.32 2676.05 1042.91 C 2698.30 1041.61 2720.58 1038.00 2741.58 1030.33 C 2776.83 1017.64 2808.46 995.22 2832.37 966.40 C 2857.39 935.73 2874.96 899.32 2885.23 861.18 C 2897.16 816.65 2899.27 769.63 2892.26 724.11 C 2889.10 704.55 2885.10 685.05 2878.72 666.26 C 2867.06 630.95 2848.79 597.70 2824.41 569.56 C 2802.44 544.25 2775.33 523.39 2745.11 508.86 C 2703.20 488.62 2655.97 479.89 2609.58 482.84 Z" />
<path fill="#000000" opacity="1.00" d=" M 1017.30 456.68 C 1045.86 456.68 1074.42 456.71 1102.99 456.80 C 1166.80 623.75 1230.56 790.72 1294.35 957.67 C 1300.46 973.36 1305.88 989.38 1313.76 1004.31 C 1319.10 1014.39 1326.06 1023.99 1335.72 1030.32 C 1351.65 1040.70 1371.39 1040.77 1389.70 1041.78 C 1389.68 1048.40 1389.59 1055.02 1389.54 1061.64 C 1304.82 1061.85 1220.09 1061.69 1135.37 1061.72 C 1135.40 1054.89 1135.45 1048.06 1135.48 1041.23 C 1157.61 1040.22 1180.35 1043.59 1201.93 1037.19 C 1207.53 1035.46 1212.99 1033.11 1217.85 1029.82 C 1223.29 1024.45 1225.39 1016.47 1225.19 1009.00 C 1224.94 997.90 1220.56 987.52 1216.53 977.36 C 1198.98 933.14 1182.51 888.51 1164.91 844.31 C 1089.22 844.48 1013.54 844.58 937.85 844.19 C 921.43 885.95 906.01 928.10 890.00 970.02 C 886.27 979.77 882.42 989.57 880.48 999.87 C 879.19 1007.14 879.31 1015.15 883.29 1021.62 C 887.38 1028.43 895.05 1031.78 902.04 1034.81 C 924.15 1043.34 948.27 1040.48 971.41 1041.40 C 971.10 1047.87 970.87 1054.36 970.63 1060.84 C 896.81 1063.01 822.97 1061.16 749.13 1061.74 C 749.05 1055.08 749.06 1048.42 748.99 1041.76 C 767.40 1040.57 787.00 1040.88 803.53 1031.49 C 812.67 1026.54 818.94 1017.94 824.52 1009.44 C 834.79 993.13 841.26 974.88 848.42 957.10 C 906.62 801.43 964.77 645.74 1022.86 490.04 C 1024.19 486.44 1026.26 482.87 1025.64 478.89 C 1024.63 470.90 1019.28 464.38 1017.30 456.68 M 1042.73 561.81 C 1012.22 643.26 981.55 724.65 951.30 806.20 C 1017.83 806.25 1084.37 806.08 1150.91 806.33 C 1118.32 717.82 1083.86 630.01 1050.40 541.82 C 1047.56 548.37 1045.33 555.16 1042.73 561.81 Z" />
<path fill="#000000" opacity="1.00" d=" M 4080.99 456.60 C 4109.40 456.65 4137.82 456.77 4166.24 456.73 C 4227.72 618.17 4289.58 779.46 4351.15 940.86 C 4358.45 959.50 4364.98 978.46 4373.18 996.73 C 4379.84 1011.31 4389.34 1025.65 4403.95 1033.21 C 4419.25 1041.00 4436.88 1040.73 4453.61 1041.66 C 4453.57 1048.39 4453.43 1055.13 4453.34 1061.87 C 4368.26 1061.62 4283.17 1061.82 4198.09 1061.68 C 4197.96 1054.87 4197.93 1048.06 4197.90 1041.25 C 4219.90 1040.09 4242.44 1043.65 4263.98 1037.61 C 4269.68 1035.93 4275.28 1033.62 4280.25 1030.30 C 4286.00 1025.30 4288.70 1017.48 4288.54 1009.98 C 4288.38 998.81 4284.02 988.32 4279.93 978.12 C 4262.32 934.08 4246.46 889.37 4228.45 845.49 C 4152.52 843.07 4076.54 845.13 4000.60 844.43 C 3986.11 883.26 3971.49 922.04 3956.61 960.71 C 3950.41 976.64 3943.80 992.81 3942.44 1010.02 C 3943.54 1019.83 3950.27 1028.79 3959.38 1032.62 C 3983.06 1043.26 4009.63 1040.74 4034.89 1041.28 C 4034.90 1048.10 4034.94 1054.92 4034.94 1061.74 C 3961.10 1061.73 3887.27 1061.69 3813.44 1061.84 C 3813.40 1055.09 3812.99 1048.34 3813.17 1041.60 C 3833.20 1040.64 3855.31 1040.78 3872.05 1028.02 C 3885.04 1017.27 3892.97 1001.86 3899.68 986.69 C 3908.94 965.13 3916.83 943.03 3925.11 921.09 C 3978.81 777.75 4032.22 634.30 4085.76 490.89 C 4087.13 487.03 4089.14 483.14 4088.60 478.90 C 4087.75 470.95 4082.78 464.28 4080.99 456.60 M 4107.73 557.70 C 4076.24 640.33 4045.58 723.26 4014.71 806.12 C 4081.32 806.11 4147.93 806.25 4214.54 806.19 C 4181.16 718.03 4147.18 630.10 4113.96 541.88 C 4111.50 546.98 4109.85 552.45 4107.73 557.70 Z" />
<path fill="#000000" opacity="1.00" d=" M 2.89 464.01 C 56.60 464.08 110.31 464.09 164.02 463.94 C 310.59 619.93 457.09 775.98 603.65 931.98 C 603.67 806.64 603.72 681.31 603.75 555.97 C 603.88 540.34 603.89 523.81 596.32 509.66 C 592.09 501.42 584.50 495.25 575.76 492.31 C 551.54 482.94 525.10 484.75 499.65 484.65 C 499.51 477.81 499.36 470.98 499.24 464.14 C 581.63 464.02 664.01 464.03 746.40 464.14 C 746.21 470.98 745.99 477.82 745.76 484.67 C 724.39 484.74 702.64 483.49 681.72 488.72 C 674.42 490.73 666.74 492.85 661.00 498.07 C 652.59 505.45 648.71 517.01 649.30 528.01 C 649.41 564.68 649.28 601.35 649.30 638.03 C 649.15 781.62 649.30 925.20 649.34 1068.79 C 640.82 1069.03 632.29 1069.06 623.77 1069.40 C 623.37 1069.01 622.57 1068.22 622.17 1067.82 C 460.70 895.80 299.44 723.58 138.14 551.39 C 138.12 690.60 138.07 829.81 138.10 969.02 C 138.60 986.37 139.68 1005.15 150.25 1019.71 C 157.50 1029.92 169.86 1034.36 181.51 1037.30 C 202.44 1042.38 224.14 1040.64 245.45 1041.53 C 245.27 1048.21 245.37 1054.90 245.40 1061.59 C 229.25 1061.88 213.10 1061.66 196.96 1061.73 C 131.31 1061.75 65.65 1061.84 0.00 1061.80 L 0.00 1041.55 C 12.49 1041.24 25.02 1041.42 37.46 1040.17 C 51.84 1038.67 66.69 1034.59 77.68 1024.75 C 88.68 1014.62 92.36 999.19 93.31 984.80 C 94.79 961.91 93.83 938.96 94.05 916.04 C 93.79 779.46 94.48 642.87 93.55 506.29 C 66.45 490.06 34.39 482.91 2.95 484.07 C 2.91 477.38 2.89 470.70 2.89 464.01 Z" />
<path fill="#000000" opacity="1.00" d=" M 1331.01 464.39 C 1518.32 463.76 1705.63 464.22 1892.94 464.00 C 1896.88 512.81 1902.01 561.51 1906.04 610.32 C 1899.43 609.33 1892.83 608.35 1886.25 607.31 C 1881.36 588.58 1878.28 569.35 1871.85 551.05 C 1867.80 539.71 1862.36 528.68 1854.49 519.49 C 1843.52 507.34 1826.60 502.73 1810.71 502.46 C 1758.07 501.95 1705.41 502.55 1652.77 502.07 C 1652.23 653.39 1652.50 804.71 1652.47 956.04 C 1652.55 969.98 1651.86 984.09 1654.68 997.85 C 1656.66 1007.60 1660.43 1017.33 1667.37 1024.66 C 1672.68 1030.50 1680.01 1033.93 1687.41 1036.35 C 1712.28 1044.40 1738.69 1040.06 1764.29 1041.24 C 1764.11 1048.09 1764.01 1054.94 1763.86 1061.80 C 1663.14 1061.82 1562.41 1061.77 1461.69 1061.79 C 1461.42 1054.91 1461.58 1048.02 1461.53 1041.14 C 1484.29 1040.29 1507.44 1043.53 1529.86 1038.27 C 1540.72 1035.50 1552.02 1031.14 1559.12 1022.00 C 1569.41 1008.77 1571.08 991.27 1571.60 975.10 C 1571.71 817.50 1571.68 659.91 1571.61 502.31 C 1526.07 502.25 1480.54 502.21 1435.01 502.28 C 1422.41 502.71 1409.59 501.24 1397.22 504.25 C 1383.57 507.31 1370.66 515.31 1363.53 527.57 C 1348.31 552.04 1343.76 581.00 1338.29 608.78 C 1331.59 609.14 1324.91 609.62 1318.22 610.03 C 1321.88 561.43 1327.53 513.00 1331.01 464.39 Z" />
<path fill="#000000" opacity="1.00" d=" M 1961.00 464.01 C 2047.71 464.06 2134.43 464.08 2221.15 464.01 C 2220.92 470.93 2220.66 477.85 2220.46 484.78 C 2202.58 484.82 2184.21 483.65 2166.93 489.11 C 2158.62 491.81 2150.49 495.95 2144.65 502.59 C 2138.07 509.97 2134.42 519.50 2132.67 529.13 C 2130.83 538.63 2131.34 548.35 2131.26 557.98 C 2131.35 700.34 2131.34 842.70 2131.26 985.06 C 2131.08 998.54 2132.93 1012.83 2140.87 1024.12 C 2145.46 1030.83 2152.71 1035.19 2160.42 1037.42 C 2180.48 1043.70 2201.74 1040.45 2222.38 1041.14 C 2222.55 1048.02 2222.24 1054.91 2222.20 1061.80 C 2134.14 1061.83 2046.09 1061.75 1958.04 1061.70 C 1957.94 1054.86 1957.97 1048.02 1958.03 1041.19 C 1975.68 1040.41 1993.49 1042.87 2011.03 1039.90 C 2021.60 1038.07 2032.61 1034.08 2039.25 1025.18 C 2048.78 1012.66 2050.26 996.24 2050.51 981.04 C 2050.55 846.36 2050.51 711.69 2050.53 577.01 C 2050.30 557.97 2051.85 538.39 2046.02 519.96 C 2042.97 510.77 2038.12 501.46 2029.45 496.47 C 2009.16 483.32 1983.92 484.62 1960.76 484.33 C 1960.81 477.55 1960.90 470.78 1961.00 464.01 Z" />
<path fill="#000000" opacity="1.00" d=" M 3065.52 464.07 C 3119.22 464.26 3172.92 463.53 3226.62 464.45 C 3330.02 572.69 3432.33 681.99 3534.65 791.25 C 3578.95 838.56 3623.38 885.74 3667.74 932.98 C 3667.71 806.31 3667.71 679.64 3667.67 552.97 C 3667.20 540.18 3666.69 527.04 3661.97 514.98 C 3658.84 506.89 3653.14 499.64 3645.41 495.56 C 3630.05 487.15 3612.21 485.15 3594.99 484.76 C 3584.51 484.52 3574.03 484.82 3563.57 484.57 C 3563.41 477.82 3563.22 471.07 3563.12 464.32 C 3645.02 463.76 3726.92 464.13 3808.82 464.08 C 3808.75 470.89 3808.74 477.71 3808.69 484.52 C 3785.78 484.99 3762.21 483.04 3740.08 490.24 C 3732.58 492.88 3724.49 495.84 3719.65 502.53 C 3712.95 511.50 3711.90 523.17 3711.82 534.00 C 3711.81 712.35 3711.86 890.71 3711.86 1069.07 C 3703.16 1068.95 3694.47 1068.98 3685.79 1069.04 C 3524.56 896.26 3363.22 723.59 3200.86 551.87 C 3200.68 666.59 3200.66 781.30 3200.69 896.02 C 3200.95 922.69 3200.03 949.39 3201.50 976.03 C 3202.18 987.53 3203.27 999.29 3207.93 1009.96 C 3211.92 1019.28 3219.14 1027.43 3228.56 1031.48 C 3253.23 1043.13 3281.23 1040.96 3307.76 1041.15 C 3307.76 1048.05 3307.79 1054.95 3307.81 1061.86 C 3227.16 1061.41 3146.49 1062.36 3065.84 1061.33 C 3065.02 1054.68 3064.15 1048.05 3063.34 1041.40 C 3083.62 1041.15 3104.65 1042.30 3123.99 1035.02 C 3132.28 1031.78 3140.48 1027.22 3145.85 1019.90 C 3153.31 1009.92 3155.79 997.22 3156.43 985.04 C 3156.73 976.69 3156.50 968.34 3156.58 960.00 C 3156.55 808.87 3156.64 657.73 3156.60 506.60 C 3129.77 489.24 3097.09 482.70 3065.46 484.32 C 3065.46 477.57 3065.47 470.82 3065.52 464.07 Z" />
<path fill="#000000" opacity="1.00" d=" M 4485.49 464.44 C 4573.89 463.81 4662.29 463.89 4750.69 464.40 C 4750.45 471.14 4750.34 477.88 4749.98 484.61 C 4726.77 485.07 4702.69 482.36 4680.42 490.50 C 4672.01 493.14 4665.37 499.87 4661.82 507.81 C 4657.11 518.15 4656.44 529.72 4656.22 540.92 C 4656.18 577.27 4656.42 613.61 4656.36 649.96 C 4656.35 763.97 4655.82 877.99 4656.82 992.00 C 4656.84 996.09 4656.63 1000.26 4657.76 1004.25 C 4658.97 1009.00 4661.98 1013.20 4665.99 1016.03 C 4672.61 1020.77 4680.86 1022.39 4688.83 1023.19 C 4702.50 1024.32 4716.22 1023.25 4729.93 1023.33 C 4769.87 1023.15 4809.89 1025.26 4849.78 1022.28 C 4862.55 1021.17 4875.65 1020.55 4887.69 1015.68 C 4909.95 1007.28 4927.12 989.61 4940.82 970.71 C 4951.98 955.16 4961.65 938.60 4971.12 922.00 C 4973.60 918.69 4977.88 917.41 4981.87 917.20 C 4987.90 916.85 4993.93 917.80 5000.00 917.61 L 5000.00 919.68 C 4981.08 951.90 4971.25 988.22 4957.80 1022.83 C 4954.49 1031.47 4950.57 1039.87 4947.72 1048.69 C 4945.56 1054.56 4942.05 1061.66 4935.03 1062.36 C 4923.04 1061.48 4910.98 1062.00 4898.97 1061.87 C 4760.32 1061.71 4621.68 1061.80 4483.03 1061.80 C 4482.98 1054.92 4482.96 1048.03 4482.97 1041.16 C 4501.25 1040.66 4519.73 1042.88 4537.84 1039.45 C 4544.32 1038.10 4550.99 1036.48 4556.46 1032.54 C 4563.28 1027.82 4568.02 1020.59 4570.82 1012.87 C 4574.66 1002.38 4575.50 991.09 4575.49 980.00 C 4575.50 843.65 4575.49 707.30 4575.50 570.95 C 4575.43 560.29 4575.81 549.59 4574.67 538.97 C 4573.49 527.17 4570.96 514.95 4563.73 505.27 C 4558.86 498.54 4551.55 494.11 4543.98 491.04 C 4525.61 483.71 4505.44 484.72 4486.05 484.33 C 4485.78 477.70 4485.76 471.07 4485.49 464.44 Z" />
<path fill="#000000" opacity="1.00" d=" M 275.01 1274.13 C 322.21 1261.79 371.36 1257.70 420.03 1260.08 C 462.44 1262.02 504.52 1269.05 545.64 1279.52 C 569.72 1285.95 593.28 1294.68 618.05 1298.24 C 622.96 1299.08 627.82 1296.67 631.07 1293.10 C 635.84 1287.92 638.99 1281.54 643.29 1276.01 C 648.68 1275.93 654.06 1276.16 659.45 1276.22 C 659.49 1342.30 659.51 1408.39 659.50 1474.47 C 651.73 1474.42 643.95 1474.36 636.18 1474.29 C 631.77 1456.39 626.53 1438.65 619.30 1421.67 C 607.43 1393.21 589.59 1367.00 566.10 1346.86 C 537.78 1322.60 502.49 1307.14 465.93 1300.52 C 437.61 1295.59 408.71 1293.63 380.00 1295.47 C 339.32 1297.98 298.73 1308.15 262.94 1327.96 C 237.56 1341.73 214.73 1360.01 195.31 1381.33 C 172.07 1406.78 153.57 1436.38 139.79 1467.92 C 127.29 1496.34 118.96 1526.46 113.85 1557.05 C 106.70 1598.98 104.95 1641.92 109.86 1684.21 C 114.23 1721.82 123.99 1758.91 139.87 1793.34 C 152.97 1822.29 171.15 1848.89 193.28 1871.69 C 240.84 1920.78 306.47 1953.04 375.02 1957.02 C 441.82 1961.72 509.02 1946.35 569.39 1918.04 C 570.22 1872.70 570.05 1827.34 569.75 1781.99 C 569.47 1768.59 568.50 1755.05 564.66 1742.15 C 561.01 1729.58 553.69 1717.57 542.31 1710.67 C 531.82 1704.64 519.98 1701.30 508.08 1699.49 C 484.71 1696.11 461.04 1698.32 437.54 1697.56 C 437.74 1690.17 437.87 1682.78 438.09 1675.40 C 539.90 1675.92 641.71 1675.20 743.52 1675.89 C 743.43 1682.97 743.30 1690.06 743.18 1697.15 C 729.94 1699.20 716.47 1700.55 703.70 1704.81 C 692.02 1708.70 680.91 1715.68 674.13 1726.17 C 666.70 1737.65 664.41 1751.58 664.00 1765.02 C 663.81 1818.73 663.86 1872.44 663.97 1926.15 C 574.54 1970.19 475.34 1994.23 375.67 1996.00 L 355.39 1996.00 C 315.11 1995.84 274.74 1990.03 236.41 1977.48 C 202.36 1966.37 169.87 1950.18 141.05 1928.85 C 118.13 1911.79 97.25 1891.94 79.51 1869.53 C 44.07 1824.94 20.24 1771.68 7.86 1716.23 C 2.68 1696.54 7.50 1675.31 0.00 1656.08 L 0.00 1630.60 C 3.27 1566.98 19.55 1503.57 50.80 1447.84 C 66.60 1419.44 85.83 1392.87 108.72 1369.74 C 154.05 1323.50 212.22 1290.03 275.01 1274.13 Z" />
<path fill="#000000" opacity="1.00" d=" M 1087.67 1265.95 C 1117.12 1265.86 1146.56 1265.86 1176.00 1265.87 C 1180.25 1265.97 1184.52 1265.61 1188.77 1266.07 C 1267.03 1471.43 1345.62 1676.67 1423.96 1881.99 C 1431.63 1902.03 1440.33 1922.82 1456.73 1937.38 C 1467.77 1947.56 1482.91 1951.61 1497.48 1953.31 C 1507.51 1954.57 1517.63 1954.50 1527.71 1955.06 C 1527.53 1962.80 1527.65 1970.54 1527.44 1978.28 C 1428.62 1978.07 1329.79 1978.13 1230.97 1978.26 C 1230.91 1970.36 1230.87 1962.46 1230.85 1954.58 C 1257.30 1954.01 1284.43 1956.81 1310.19 1949.22 C 1316.74 1947.03 1323.97 1945.15 1328.71 1939.76 C 1334.60 1933.44 1336.00 1924.30 1335.34 1915.99 C 1334.23 1902.50 1329.59 1889.65 1324.76 1877.11 C 1305.74 1825.87 1285.78 1774.99 1266.09 1724.00 C 1174.87 1724.08 1083.65 1724.06 992.43 1724.17 C 973.23 1776.57 953.27 1828.68 934.00 1881.05 C 929.92 1891.96 925.67 1903.15 925.57 1914.96 C 925.41 1922.54 927.49 1930.49 932.75 1936.15 C 938.46 1942.14 946.43 1945.26 954.02 1948.14 C 979.79 1956.91 1007.41 1953.99 1034.13 1954.61 C 1034.06 1962.49 1033.98 1970.37 1033.89 1978.26 C 946.32 1978.11 858.74 1978.10 771.16 1978.19 C 771.11 1970.45 771.06 1962.71 771.04 1954.98 C 792.36 1954.16 814.87 1954.43 834.28 1944.28 C 850.14 1936.00 859.74 1920.06 867.79 1904.74 C 876.16 1887.56 883.25 1869.80 890.09 1851.97 C 959.92 1665.41 1029.48 1478.75 1099.10 1292.11 C 1095.30 1283.39 1091.46 1274.68 1087.67 1265.95 M 1098.50 1439.70 C 1067.88 1520.16 1038.29 1601.00 1007.48 1681.39 C 1088.44 1681.50 1169.39 1681.58 1250.34 1681.26 C 1209.92 1574.38 1169.87 1467.36 1129.41 1360.50 C 1118.71 1386.73 1108.70 1413.26 1098.50 1439.70 Z" />
<path fill="#000000" opacity="1.00" d=" M 3765.02 1267.21 C 3779.37 1267.64 3793.71 1266.72 3808.06 1266.48 C 3858.96 1265.66 3910.36 1268.25 3959.99 1280.34 C 3996.18 1288.89 4031.52 1303.00 4061.55 1325.26 C 4078.90 1338.11 4094.41 1353.70 4106.13 1371.90 C 4123.43 1398.91 4131.64 1431.13 4132.50 1463.01 C 4133.48 1500.48 4122.70 1538.29 4101.13 1569.03 C 4080.14 1599.68 4049.31 1622.53 4015.77 1637.84 C 4005.84 1642.43 3995.60 1646.33 3985.21 1649.73 C 3985.15 1651.25 3987.21 1651.75 3988.13 1652.81 C 4063.29 1713.19 4128.61 1784.39 4197.30 1851.74 C 4209.78 1863.99 4222.15 1876.42 4236.01 1887.15 C 4283.11 1924.61 4340.58 1950.14 4400.88 1955.15 C 4400.72 1962.88 4400.64 1970.62 4400.44 1978.36 C 4353.24 1977.11 4305.71 1977.47 4259.04 1969.36 C 4235.88 1965.20 4212.93 1959.13 4191.38 1949.60 C 4157.18 1934.50 4127.92 1910.47 4101.12 1884.82 C 4085.64 1870.00 4070.80 1854.55 4055.63 1839.45 C 4027.24 1811.50 3999.73 1782.68 3970.99 1755.09 C 3944.29 1729.53 3916.33 1705.14 3885.84 1684.19 C 3884.31 1683.32 3882.97 1681.61 3881.11 1681.91 C 3837.60 1685.17 3793.85 1685.73 3750.31 1682.59 C 3749.81 1740.06 3749.97 1797.53 3750.03 1855.01 C 3750.20 1875.38 3748.64 1896.52 3756.18 1915.92 C 3760.23 1926.70 3767.32 1936.73 3777.43 1942.56 C 3790.59 1950.35 3805.95 1953.37 3821.06 1954.29 C 3836.07 1955.20 3851.11 1954.40 3866.15 1954.61 C 3866.03 1962.51 3865.91 1970.42 3865.80 1978.34 C 3759.22 1978.08 3652.64 1978.07 3546.07 1978.34 C 3545.91 1970.42 3545.77 1962.51 3545.66 1954.61 C 3567.09 1954.33 3589.04 1956.22 3609.90 1950.13 C 3620.68 1946.83 3631.34 1941.47 3638.55 1932.56 C 3648.33 1920.66 3652.06 1905.11 3653.56 1890.10 C 3654.97 1877.08 3654.50 1863.98 3654.58 1850.93 C 3654.55 1692.30 3654.56 1533.68 3654.51 1375.05 C 3654.05 1357.54 3651.78 1339.07 3641.81 1324.18 C 3636.72 1316.54 3629.27 1310.59 3620.68 1307.38 C 3597.03 1297.65 3570.91 1299.77 3545.92 1299.75 C 3545.76 1291.99 3545.89 1284.23 3545.71 1276.47 C 3618.92 1276.07 3691.80 1267.09 3765.02 1267.21 M 3750.15 1299.47 C 3749.86 1416.57 3750.03 1533.67 3750.01 1650.77 C 3760.67 1651.27 3771.30 1652.22 3781.97 1652.70 C 3825.95 1654.85 3870.98 1654.53 3913.47 1641.55 C 3933.18 1635.33 3952.55 1626.90 3968.96 1614.13 C 3993.48 1594.79 4009.61 1566.38 4017.61 1536.49 C 4024.65 1512.00 4025.36 1486.30 4024.78 1460.99 C 4024.00 1441.97 4021.10 1422.97 4015.26 1404.83 C 4009.34 1386.52 4000.27 1369.03 3987.41 1354.63 C 3979.40 1345.49 3969.76 1337.91 3959.38 1331.67 C 3940.25 1319.88 3919.01 1311.77 3897.19 1306.66 C 3849.02 1295.51 3799.17 1297.63 3750.15 1299.47 Z" />
<path fill="#000000" opacity="1.00" d=" M 1600.72 1276.61 C 1708.56 1275.68 1816.41 1276.40 1924.26 1276.14 C 1924.25 1284.46 1924.23 1292.78 1924.20 1301.11 C 1894.07 1302.18 1863.10 1297.80 1833.78 1306.76 C 1825.69 1308.86 1818.44 1313.83 1813.64 1320.67 C 1804.83 1333.19 1802.39 1348.99 1802.35 1363.98 C 1802.33 1544.69 1802.07 1725.39 1802.57 1906.09 C 1803.19 1923.09 1820.37 1934.40 1836.12 1935.14 C 1887.75 1935.96 1939.39 1935.24 1991.03 1935.60 C 2015.40 1935.97 2040.45 1933.28 2062.73 1922.79 C 2076.98 1916.33 2088.88 1905.83 2099.30 1894.33 C 2122.24 1869.20 2138.32 1838.97 2156.82 1810.65 C 2165.25 1810.69 2173.69 1810.72 2182.13 1810.78 C 2160.98 1866.62 2139.69 1922.42 2118.19 1978.13 C 1945.31 1978.16 1772.42 1978.02 1599.54 1978.06 C 1599.51 1970.24 1599.53 1962.44 1599.53 1954.63 C 1616.65 1953.85 1633.81 1955.69 1650.91 1954.29 C 1664.99 1952.98 1679.88 1949.40 1690.53 1939.55 C 1703.24 1927.01 1706.48 1908.20 1706.79 1891.06 C 1706.84 1719.39 1706.80 1547.71 1706.81 1376.03 C 1706.79 1358.49 1704.15 1339.87 1693.44 1325.43 C 1684.43 1313.15 1669.51 1307.10 1655.07 1303.99 C 1637.35 1300.33 1619.15 1301.12 1601.17 1300.99 C 1601.03 1292.86 1600.85 1284.73 1600.72 1276.61 Z" />
<path fill="#000000" opacity="1.00" d=" M 2219.69 1276.07 C 2327.33 1276.30 2434.96 1276.12 2542.60 1276.15 C 2542.51 1284.53 2542.73 1292.92 2542.49 1301.30 C 2516.52 1301.96 2490.25 1298.83 2464.53 1303.73 C 2457.02 1305.31 2449.44 1307.21 2442.63 1310.79 C 2434.47 1315.53 2428.65 1323.58 2425.49 1332.36 C 2420.52 1345.96 2420.18 1360.62 2419.47 1374.92 C 2418.97 1540.27 2419.38 1705.63 2419.16 1870.99 C 2419.21 1883.05 2418.85 1895.21 2420.71 1907.17 C 2422.23 1918.03 2429.76 1927.97 2440.08 1931.89 C 2449.28 1935.33 2459.27 1935.23 2468.96 1935.60 C 2519.65 1935.53 2570.33 1935.56 2621.02 1935.46 C 2643.92 1935.05 2667.23 1930.64 2687.40 1919.39 C 2701.87 1911.49 2713.36 1899.35 2723.87 1886.87 C 2743.42 1863.26 2758.19 1836.27 2774.87 1810.66 C 2783.30 1810.67 2791.73 1810.81 2800.17 1810.81 C 2778.92 1866.59 2757.65 1922.37 2736.21 1978.08 C 2562.88 1978.14 2389.56 1978.17 2216.23 1978.06 C 2216.51 1970.16 2216.67 1962.25 2217.12 1954.37 C 2239.40 1953.77 2262.07 1957.04 2284.02 1951.84 C 2292.44 1949.70 2301.00 1946.66 2307.51 1940.68 C 2313.90 1934.92 2318.05 1927.09 2320.61 1918.97 C 2324.25 1907.34 2325.07 1895.07 2325.21 1882.97 C 2325.20 1720.98 2325.21 1559.00 2325.21 1397.02 C 2325.18 1382.67 2325.59 1368.21 2323.03 1354.04 C 2321.04 1342.96 2317.14 1331.89 2309.74 1323.25 C 2302.10 1314.31 2291.12 1308.97 2280.03 1305.66 C 2260.32 1299.98 2239.61 1301.23 2219.34 1301.06 C 2219.43 1292.73 2219.56 1284.40 2219.69 1276.07 Z" />
<path fill="#000000" opacity="1.00" d=" M 2843.84 1276.07 C 2955.23 1276.05 3066.61 1276.22 3178.00 1276.20 C 3246.59 1276.19 3315.17 1276.02 3383.75 1276.03 C 3387.20 1328.89 3389.91 1381.79 3393.49 1434.64 C 3386.11 1435.03 3378.71 1434.55 3371.34 1434.67 C 3367.46 1412.85 3364.04 1390.72 3355.82 1370.02 C 3350.87 1357.63 3344.18 1345.76 3335.01 1336.01 C 3326.75 1327.63 3315.60 1322.63 3304.18 1320.37 C 3294.92 1318.36 3285.41 1318.78 3276.01 1318.73 C 3201.49 1318.70 3126.98 1318.79 3052.46 1318.69 C 3052.18 1410.25 3052.16 1501.83 3052.55 1593.40 C 3119.68 1593.26 3186.81 1593.38 3253.95 1593.32 C 3265.92 1593.41 3278.28 1591.10 3288.46 1584.50 C 3294.98 1580.41 3299.84 1574.18 3303.29 1567.38 C 3312.89 1549.19 3314.99 1528.38 3317.38 1508.29 C 3324.91 1508.11 3332.45 1508.13 3340.00 1508.01 C 3340.36 1580.00 3340.19 1651.99 3340.18 1723.98 C 3332.64 1724.08 3325.10 1724.06 3317.58 1724.13 C 3314.31 1703.78 3312.10 1682.72 3302.81 1664.02 C 3299.43 1657.24 3295.20 1650.61 3288.90 1646.21 C 3277.14 1637.74 3262.13 1635.96 3248.03 1635.94 C 3182.79 1636.07 3117.55 1635.92 3052.32 1636.05 C 3052.33 1715.36 3052.35 1794.67 3052.18 1873.98 C 3052.24 1885.22 3052.65 1896.72 3056.31 1907.46 C 3058.91 1914.77 3063.06 1921.98 3069.76 1926.25 C 3077.73 1931.70 3087.41 1933.83 3096.89 1934.79 C 3111.54 1936.21 3126.28 1935.46 3140.98 1935.60 C 3188.31 1935.51 3235.65 1935.54 3282.98 1935.53 C 3305.77 1935.76 3329.45 1933.70 3350.01 1923.05 C 3362.49 1916.83 3372.40 1906.57 3380.16 1895.15 C 3397.98 1869.48 3405.74 1838.79 3415.19 1809.44 C 3422.58 1809.44 3429.97 1809.15 3437.38 1809.18 C 3431.09 1865.50 3424.82 1921.83 3418.67 1978.17 C 3255.79 1978.27 3092.89 1978.06 2930.00 1978.13 C 2893.43 1978.13 2856.85 1978.37 2820.28 1978.08 C 2820.31 1970.25 2820.18 1962.43 2820.15 1954.62 C 2842.57 1954.24 2865.08 1955.73 2887.42 1953.25 C 2900.20 1951.83 2912.88 1948.89 2924.69 1943.73 C 2939.66 1936.81 2950.38 1922.19 2953.73 1906.19 C 2958.06 1883.75 2958.37 1860.81 2958.30 1838.05 C 2958.23 1695.04 2958.39 1552.04 2958.19 1409.04 C 2958.39 1394.64 2957.81 1380.24 2956.68 1365.89 C 2955.31 1350.71 2952.23 1334.75 2942.34 1322.64 C 2936.01 1314.44 2926.53 1309.51 2916.98 1306.07 C 2893.43 1297.84 2868.12 1300.08 2843.63 1299.55 C 2843.73 1291.72 2843.75 1283.89 2843.84 1276.07 Z" />
<path fill="#000000" opacity="1.00" d=" M 4215.81 1276.07 C 4315.55 1276.16 4415.29 1276.16 4515.03 1276.07 C 4515.15 1283.81 4515.27 1291.55 4515.39 1299.30 C 4494.97 1300.98 4473.56 1299.09 4454.29 1307.28 C 4448.66 1309.84 4442.60 1312.81 4439.64 1318.55 C 4435.78 1325.49 4437.30 1333.92 4440.02 1340.98 C 4443.84 1350.35 4448.90 1359.17 4454.53 1367.57 C 4514.29 1459.86 4573.91 1552.25 4633.77 1644.48 C 4636.96 1643.37 4639.47 1640.92 4641.07 1637.96 C 4661.72 1603.24 4681.77 1568.16 4702.37 1533.40 C 4733.47 1480.46 4764.59 1427.53 4795.37 1374.41 C 4800.23 1366.49 4804.00 1357.93 4807.14 1349.20 C 4810.30 1339.91 4811.96 1328.99 4806.90 1320.05 C 4803.31 1313.20 4796.05 1309.58 4789.27 1306.64 C 4772.21 1299.83 4753.50 1300.44 4735.49 1299.24 C 4735.59 1291.51 4735.70 1283.79 4735.85 1276.07 C 4820.86 1276.15 4905.88 1276.15 4990.90 1276.01 C 4991.03 1283.73 4991.21 1291.46 4991.35 1299.19 C 4972.33 1301.44 4953.18 1304.09 4935.03 1310.42 C 4918.00 1316.24 4902.37 1325.90 4889.20 1338.11 C 4866.01 1359.71 4851.14 1388.10 4835.13 1415.00 C 4782.90 1503.79 4730.57 1592.53 4678.25 1681.27 C 4673.85 1689.05 4668.20 1696.32 4665.80 1705.05 C 4664.61 1708.93 4664.87 1713.01 4665.03 1717.01 C 4665.10 1763.65 4665.11 1810.28 4665.00 1856.92 C 4665.02 1876.65 4664.07 1897.11 4671.23 1915.89 C 4674.93 1925.50 4680.92 1934.62 4689.69 1940.30 C 4700.93 1948.01 4714.42 1951.68 4727.83 1953.29 C 4741.65 1954.91 4755.59 1954.64 4769.49 1954.67 C 4769.44 1962.48 4769.38 1970.30 4769.32 1978.12 C 4665.63 1978.11 4561.95 1978.16 4458.26 1978.21 C 4458.11 1970.35 4457.85 1962.51 4457.70 1954.66 C 4478.63 1954.59 4499.97 1955.84 4520.45 1950.59 C 4530.85 1947.82 4541.10 1943.43 4549.27 1936.28 C 4559.41 1927.19 4564.83 1914.00 4567.33 1900.86 C 4570.11 1887.09 4569.43 1872.99 4569.58 1859.05 C 4569.71 1817.02 4569.62 1775.00 4569.62 1732.97 C 4569.39 1727.45 4570.51 1721.72 4568.33 1716.46 C 4565.64 1709.65 4561.23 1703.73 4557.44 1697.53 C 4491.84 1595.37 4426.34 1493.15 4360.80 1390.95 C 4349.05 1373.68 4337.15 1356.36 4322.73 1341.18 C 4311.83 1329.84 4299.60 1319.44 4285.38 1312.54 C 4263.62 1302.27 4239.15 1301.15 4215.57 1299.12 C 4215.41 1291.44 4215.74 1283.75 4215.81 1276.07 Z" />
</g>
</svg>
