<svg width="56" height="96" viewBox="0 0 56 96" fill="none" xmlns="http://www.w3.org/2000/svg">
<path d="M10.7495 0H22.1212L29.1378 24.6282L36.2956 0H47.4364V0.494461H43.3059V36.1228H47.4364V36.624H32.4409V36.1228H36.5778V0.663797L26.0592 37.0304H25.7578L15.329 0.663797V36.1228H19.3889V36.624H10.7495V36.1228H14.8543V0.494461H10.7495V0Z" fill="black"/>
<path d="M0 43.6953H55.6139V44.1965H0V43.6953Z" fill="black"/>
<path d="M7.63243 47.2178C9.17173 47.2178 10.8072 48.498 10.8072 51.7086C10.8072 55.7726 8.18401 57.9063 5.49022 57.9063V57.6353C8.37001 57.3508 9.68484 55.7997 9.59504 52.5959C9.59504 52.5959 9.51808 52.5959 9.51167 52.5959C9.31284 53.6187 8.42773 54.0996 7.40153 54.0996C5.4325 54.0996 4.66284 52.3995 4.66284 50.7129C4.66284 48.7418 5.89429 47.2178 7.63243 47.2178Z" fill="black"/>
<path d="M27.8551 51.6477C23.3655 51.6477 17.5931 53.4359 17.5931 73.6208C17.5931 94.2933 23.064 95.5532 27.8551 95.5532C32.6462 95.5532 38.1172 94.2933 38.1172 73.6208C38.1172 53.4359 32.3448 51.6477 27.8551 51.6477V51.2549C36.7125 51.2549 47.1542 59.9046 47.1542 73.6072C47.1542 86.4226 39.0023 95.9596 27.8615 95.9596C16.7208 95.9596 8.55603 86.3887 8.55603 73.6072C8.55603 59.891 18.9913 51.2549 27.8551 51.2549V51.6477Z" fill="black"/>
</svg>
