<svg xmlns="http://www.w3.org/2000/svg" width="185" height="78" xmlns:v="https://vecta.io/nano"><path d="M181.47 58.279h3.041V45.726h-3.041v12.553zm-12.386 0h9.922v-2.502h-6.257l5.881-8.131v-1.918h-9.079v2.502h5.346l-5.812 8.024v2.025zm-5.503 0h3.039V45.726h-3.039v12.553zm-11.477 0h3.041v-4.9h5.401v-2.183h-5.401V48.09h5.793v-2.361h-8.834v12.551zm-11.472 0h3.039v-4.9h5.399v-2.183h-5.399V48.09h5.793v-2.361h-8.831v12.551zm-9.061.231c2.822 0 5.79-1.384 5.79-5.768v-7.013h-2.984v6.956c0 2.238-.896 3.358-2.807 3.358-1.931 0-2.809-1.067-2.809-2.985v-7.33h-3.072v7.437c0 4.066 2.968 5.344 5.881 5.344h0zm-15.927-.231h1.466V45.726h-1.466v12.553zm-9.581 0h6.954v-1.261h-5.487v-11.29h-1.466v12.551zm-7.63.213a12.22 12.22 0 0 0 3.826-.569V52.1h-1.486v4.885c-.464.103-1.088.246-2.019.246-2.897 0-5.328-1.581-5.328-5.326 0-3.657 2.342-5.078 4.972-5.078 1.787 0 2.555.34 3.198.551l.431-1.19c-.52-.211-1.431-.637-3.667-.637-4.129 0-6.469 2.572-6.469 6.532 0 3.712 2.378 6.409 6.542 6.409h0zm-16.497-.213h7.489v-1.206H83.4v-4.492h5.22v-1.208H83.4v-4.457h5.613v-1.188h-7.078v12.551zm-12.173-1.206V46.934h1.895c3.377 0 5.611 1.667 5.611 5.219 0 3.268-1.964 4.92-5.255 4.92h-2.252zm-1.449 1.206h3.503c4.22 0 6.901-1.918 6.901-6.319 0-4.083-2.931-6.231-7.007-6.231h-3.397v12.551zm107.614-19.068h8.705V36.85h-5.666v-2.842h4.861v-2.201h-4.861V29.02h5.257v-2.361h-8.296v12.553zm-6.489 0h3.039V26.659h-3.039v12.553zm-11.045-6.447v-3.727h1.466c1.626 0 2.145.532 2.145 1.792 0 1.19-.77 1.935-2.574 1.935h-1.037zm8.17 6.675l.679-2.308c-1.376-.354-2.163-.85-2.86-1.595l-1.287-1.386c1.358-.767 2.039-1.988 2.039-3.391 0-2.805-2.039-4.101-4.881-4.101h-4.917v12.553h3.057v-4.334h.931l.677-.018 1.431 1.652c1.325 1.529 2.665 2.807 5.131 2.928h0zm-22.845-.228h8.708V36.85h-5.669v-2.842h4.861v-2.201h-4.861V29.02h5.255v-2.361h-8.294v12.553zm-10.904 0h8.528v-2.379h-5.489V26.659h-3.039v12.553zm-10.902 0h8.526v-2.379h-5.487V26.659h-3.039v12.553zm-10.063-5.86l1.484-4.828 1.27 4.828h-2.754zm-5.217 5.86h3.037l1.378-3.675h4.271l1.197 3.675h3.147l-4.253-12.553h-3.915l-4.861 12.553zm-6.275.176c1.537 0 2.736-.176 4.165-.727v-5.662h-3.039v3.853l-.805.018c-2.305 0-4.165-1.261-4.165-4.033s1.681-3.868 3.935-3.868c1.287 0 1.842.158 3.039.461l.803-2.185c-1-.406-1.999-.762-3.789-.762-4.596 0-7.08 1.988-7.08 6.532 0 4.351 2.734 6.374 6.936 6.374h0zm-22.307-.176h7.491v-1.208h-6.025v-4.492h5.22v-1.208h-5.22v-4.457h5.613v-1.188h-7.08v12.553zm-9.67 0h6.954v-1.261h-5.487V26.659H68.38v12.553zM37.153 3.148c-2.19-1.527-6.458-2.39-9.979-2.39-7.557 0-14.659 2.348-19.62 7.046C2.533 12.676.023 19.12.023 27.14v11.988h11.393a2540.56 2540.56 0 0 1-.033-11.643C11.44 11.444 17.389 1.658 28.063 1.83c5.078.081 6.971 1.847 8.276 2.858l.814-1.54zm15.659 36.007v1.111c-2.809.264-5.116 1.195-5.116 5.289l-.027 11.545c0 18.628-11.729 20.522-18.7 20.522-7.044 0-18.7-1.893-18.7-20.522V43.626h1.11v14.628c0 7.512 3.472 17.212 12.485 17.212 7.385 0 12.487-4.217 12.487-14.703l-.035-21.609h16.495z" fill-rule="evenodd"/></svg>