<svg width="101" height="101" viewBox="0 0 101 101" fill="none" xmlns="http://www.w3.org/2000/svg">
<rect x="0.625" y="0.173828" width="100" height="100" rx="20" fill="#FFB42A"/>
<path d="M39.6387 58.2861L45.9131 70.9814C46.3525 71.8766 46.4583 72.7148 46.2305 73.4961C46.0026 74.2773 45.5225 74.8551 44.79 75.2295C43.9111 75.7015 43.0485 75.7666 42.2021 75.4248C41.3558 75.083 40.6803 74.3994 40.1758 73.374L34.1943 61.1914C33.641 60.0684 33.5514 59.0837 33.9258 58.2373C34.3001 57.391 34.8535 56.8132 35.5859 56.5039C36.2533 56.2272 36.9775 56.2109 37.7588 56.4551C38.5563 56.6992 39.1829 57.3096 39.6387 58.2861ZM61.5625 58.2861C62.0345 57.3096 62.6611 56.6992 63.4424 56.4551C64.2236 56.2109 64.9561 56.2272 65.6396 56.5039C66.3721 56.8132 66.9255 57.391 67.2998 58.2373C67.6742 59.0837 67.5846 60.0684 67.0312 61.1914L61.0498 73.374C60.5452 74.3994 59.8617 75.083 58.999 75.4248C58.1527 75.7666 57.29 75.7015 56.4111 75.2295C55.6787 74.8551 55.1986 74.2773 54.9707 73.4961C54.7591 72.7148 54.8649 71.8766 55.2881 70.9814L61.5625 58.2861ZM25.6738 49.1064C25.6738 45.5583 26.2598 42.2624 27.4316 39.2188C28.6198 36.1589 30.3044 33.4896 32.4854 31.2109C34.6826 28.916 37.3112 27.1338 40.3711 25.8643C43.431 24.5785 46.8408 23.9355 50.6006 23.9355C54.3766 23.9355 57.7865 24.5785 60.8301 25.8643C63.89 27.1338 66.5186 28.916 68.7158 31.2109C70.9131 33.4896 72.5977 36.1589 73.7695 39.2188C74.9577 42.2624 75.5518 45.5583 75.5518 49.1064C75.5518 51.2549 75.2832 53.4277 74.7461 55.625C74.2253 57.8223 73.4684 59.9707 72.4756 62.0703C72.8011 62.4935 72.972 63.0469 72.9883 63.7305C73.0208 64.4141 72.8581 65.1221 72.5 65.8545L67.8613 75.3271C67.6009 75.848 67.2184 76.2386 66.7139 76.499C66.2256 76.7757 65.7129 76.9141 65.1758 76.9141C64.4922 76.9141 63.8737 76.7025 63.3203 76.2793C62.7669 75.8724 62.4577 75.262 62.3926 74.4482L67.7881 63.4863C68.3903 62.2331 68.9274 60.8577 69.3994 59.3604C69.8714 57.8467 70.2295 56.2354 70.4736 54.5264C70.734 52.8174 70.8643 51.0189 70.8643 49.1309C70.8643 46.1361 70.376 43.418 69.3994 40.9766C68.4391 38.5189 67.0638 36.4111 65.2734 34.6533C63.4831 32.8792 61.3428 31.512 58.8525 30.5518C56.3786 29.5915 53.6279 29.1113 50.6006 29.1113C47.5732 29.1113 44.8226 29.5915 42.3486 30.5518C39.8747 31.512 37.7344 32.8792 35.9277 34.6533C34.1374 36.4111 32.7539 38.5189 31.7773 40.9766C30.8171 43.418 30.3369 46.1361 30.3369 49.1309C30.3369 51.0026 30.4671 52.8011 30.7275 54.5264C30.988 56.2354 31.346 57.8385 31.8018 59.3359C32.2738 60.8333 32.819 62.2168 33.4375 63.4863L38.8086 74.4482C38.7598 75.262 38.4505 75.8724 37.8809 76.2793C37.3275 76.7025 36.7171 76.9141 36.0498 76.9141C35.5127 76.9141 34.9919 76.7757 34.4873 76.499C33.999 76.2386 33.6247 75.848 33.3643 75.3271L28.7012 65.8545C28.3431 65.1221 28.1803 64.4141 28.2129 63.7305C28.2454 63.0469 28.4245 62.4935 28.75 62.0703C27.7409 59.9707 26.9759 57.8223 26.4551 55.625C25.9342 53.4277 25.6738 51.2549 25.6738 49.1064Z" fill="white"/>
</svg>
